<?xml version="1.0" encoding="utf-8"?>
<!-- Generator: Adobe Illustrator 19.2.0, SVG Export Plug-In . SVG Version: 6.00 Build 0)  -->
<svg version="1.1" id="Lager_1" xmlns="http://www.w3.org/2000/svg" xmlns:xlink="http://www.w3.org/1999/xlink" x="0px" y="0px"
	 viewBox="0 0 60 45" style="enable-background:new 0 0 60 45;" xml:space="preserve">
<style type="text/css">
	.st0{fill:none;stroke:#676767;stroke-width:0.7;stroke-miterlimit:10;}
</style>
<g>
	<circle class="st0" cx="32.4" cy="22.5" r="12.9"/>
	<line class="st0" x1="17.7" y1="17.8" x2="0.7" y2="17.8"/>
	<line class="st0" x1="17" y1="22.5" x2="5.8" y2="22.5"/>
	<line class="st0" x1="17.7" y1="26.5" x2="10.8" y2="26.5"/>
	<path class="st0" d="M36.5,17c-0.5-1.2-1.6-2.2-3.9-2.3h-0.1l0,0l0,0h-0.1C30,14.8,29,15.9,28.5,17c-0.5,1.1-0.4,1.8-0.1,3.2
		c0.4,1.5,4.1,9.3,4.1,9.3s3.8-8.1,4-9.3C36.8,19.2,36.9,18.1,36.5,17z"/>
	<circle class="st0" cx="32.5" cy="19.1" r="1.3"/>
</g>
</svg>
