<?xml version="1.0" encoding="utf-8"?>
<!-- Generator: Adobe Illustrator 19.2.0, SVG Export Plug-In . SVG Version: 6.00 Build 0)  -->
<svg version="1.1" id="Lager_1" xmlns="http://www.w3.org/2000/svg" xmlns:xlink="http://www.w3.org/1999/xlink" x="0px" y="0px"
	 viewBox="0 0 60 45" style="enable-background:new 0 0 60 45;" xml:space="preserve">
<style type="text/css">
	.st0{fill:none;stroke:#676767;stroke-width:0.7;stroke-miterlimit:10;}
</style>
<g>
	<line class="st0" x1="44.3" y1="30.6" x2="47.5" y2="30.6"/>
	<polyline class="st0" points="25.8,15.8 25.8,9.7 47.5,9.7 47.5,26.7 42,26.7 	"/>
	<line class="st0" x1="35.3" y1="30.6" x2="23.8" y2="30.6"/>
	<polyline class="st0" points="25.8,15.8 15.8,15.8 12.5,22.2 12.5,30.6 15,30.6 	"/>
	<polyline class="st0" points="25.8,15.8 25.8,26.7 37.6,26.7 	"/>
	<path class="st0" d="M44.3,30.6c0,2.4-2,4.5-4.5,4.5s-4.5-2-4.5-4.5"/>
	<path class="st0" d="M37.6,26.7c-1.3,0.8-2.3,2.2-2.3,3.8"/>
	<path class="st0" d="M42,26.7c1.3,0.8,2.3,2.2,2.3,3.8"/>
	<path class="st0" d="M37.6,26.7c0.7-0.3,1.4-0.7,2.2-0.7c0.8,0,1.5,0.2,2.2,0.7"/>
	<path class="st0" d="M23.8,30.6c0-2.4-2-4.5-4.5-4.5c-2.4,0-4.5,2-4.5,4.5"/>
	<path class="st0" d="M15,30.6c0,2.4,2,4.5,4.5,4.5c2.4,0,4.5-2,4.5-4.5"/>
	<polygon class="st0" points="22.5,19.1 18.6,19.1 16.6,22.1 22.5,22.1 	"/>
</g>
</svg>
