<?xml version="1.0" encoding="utf-8"?>
<!-- Generator: Adobe Illustrator 23.0.2, SVG Export Plug-In . SVG Version: 6.00 Build 0)  -->
<svg version="1.1" id="Layer_1" xmlns="http://www.w3.org/2000/svg" xmlns:xlink="http://www.w3.org/1999/xlink" x="0px" y="0px"
	 viewBox="0 0 112 112" style="enable-background:new 0 0 112 112;" xml:space="preserve">
<style type="text/css">
	.st0{fill:none;stroke:#4CAFC1;stroke-linecap:round;stroke-linejoin:round;stroke-miterlimit:10;}
</style>
<g>
	<path class="st0" d="M85,106.4H26.9c-1,0-1.9-0.8-1.9-1.9V67.2c0-1,0.8-1.9,1.9-1.9H85c1,0,1.9,0.8,1.9,1.9v37.3
		C86.9,105.6,86.1,106.4,85,106.4z"/>
	<g>
		<g>
			<line class="st0" x1="25" y1="70.8" x2="86.9" y2="70.8"/>
			<line class="st0" x1="25" y1="76" x2="86.9" y2="76"/>
		</g>
		<g>
			<line class="st0" x1="25" y1="95.8" x2="86.9" y2="95.8"/>
			<line class="st0" x1="25" y1="100.9" x2="86.9" y2="100.9"/>
		</g>
		<g>
			<path class="st0" d="M25,80.2l7.2,5.1c0.5,0.4,1.2,0.4,1.8,0.1l8.1-4.6c0.6-0.3,1.2-0.3,1.8,0.1l6.4,4.5c0.5,0.4,1.2,0.4,1.8,0.1
				l8.1-4.6c0.6-0.3,1.2-0.3,1.8,0.1l6.4,4.5c0.5,0.4,1.2,0.4,1.8,0.1l8.1-4.6c0.6-0.3,1.2-0.3,1.8,0.1l7.2,5.1"/>
			<path class="st0" d="M25,85.9l7.2,5.1c0.5,0.4,1.2,0.4,1.8,0.1l8.1-4.6c0.6-0.3,1.2-0.3,1.8,0.1l6.4,4.5c0.5,0.4,1.2,0.4,1.8,0.1
				l8.1-4.6c0.6-0.3,1.2-0.3,1.8,0.1l6.4,4.5c0.5,0.4,1.2,0.4,1.8,0.1l8.1-4.6c0.6-0.3,1.2-0.3,1.8,0.1l7.2,5.1"/>
		</g>
	</g>
	<path class="st0" d="M97.7,51.9H14.2c-0.8,0-1.4-0.6-1.4-1.4v-2.9c0-0.8,0.6-1.4,1.4-1.4h83.4c0.8,0,1.4,0.6,1.4,1.4v2.9
		C99.1,51.2,98.4,51.9,97.7,51.9z"/>
	<path class="st0" d="M28.6,14.3c-0.1-1.1-1.1-2-2.2-2h-0.5c-0.9,0-1.6-0.7-1.6-1.6V7.6c0-0.7-0.5-1.2-1.2-1.2
		c-0.7,0-1.2,0.5-1.2,1.2v3.1c0,0.9-0.7,1.6-1.6,1.6h-0.5c-1.2,0-2.1,0.9-2.2,2l-2.1,25c-0.1,1.3,0.9,2.4,2.2,2.4h10.8
		c1.3,0,2.3-1.1,2.2-2.4L28.6,14.3z"/>
	<path class="st0" d="M50.5,14.3c-0.1-1.1-1.1-2-2.2-2h-0.5c-0.9,0-1.6-0.7-1.6-1.6V7.6c0-0.7-0.5-1.2-1.2-1.2
		c-0.7,0-1.2,0.5-1.2,1.2v3.1c0,0.9-0.7,1.6-1.6,1.6h-0.5c-1.2,0-2.1,0.9-2.2,2l-2.1,25c-0.1,1.3,0.9,2.4,2.2,2.4h10.8
		c1.3,0,2.3-1.1,2.2-2.4L50.5,14.3z"/>
	<path class="st0" d="M72.4,14.3c-0.1-1.1-1.1-2-2.2-2h-0.5c-0.9,0-1.6-0.7-1.6-1.6V7.6c0-0.7-0.5-1.2-1.2-1.2
		c-0.7,0-1.2,0.5-1.2,1.2v3.1c0,0.9-0.7,1.6-1.6,1.6h-0.5c-1.2,0-2.1,0.9-2.2,2l-2.1,25c-0.1,1.3,0.9,2.4,2.2,2.4h10.8
		c1.3,0,2.3-1.1,2.2-2.4L72.4,14.3z"/>
	<path class="st0" d="M94.3,14.3c-0.1-1.1-1.1-2-2.2-2h-0.5c-0.9,0-1.6-0.7-1.6-1.6V7.6c0-0.7-0.5-1.2-1.2-1.2
		c-0.7,0-1.2,0.5-1.2,1.2v3.1c0,0.9-0.7,1.6-1.6,1.6h-0.5c-1.2,0-2.1,0.9-2.2,2l-2.1,25c-0.1,1.3,0.9,2.4,2.2,2.4h10.8
		c1.3,0,2.3-1.1,2.2-2.4L94.3,14.3z"/>
	<line class="st0" x1="23.1" y1="41.7" x2="28.1" y2="65.3"/>
	<line class="st0" x1="45" y1="41.7" x2="48.7" y2="70.8"/>
	<line class="st0" x1="66.9" y1="41.7" x2="61.3" y2="76"/>
	<line class="st0" x1="88.8" y1="41.7" x2="78.5" y2="80.5"/>
</g>
</svg>
