<?xml version="1.0" encoding="utf-8"?>
<!-- Generator: Adobe Illustrator 23.0.2, SVG Export Plug-In . SVG Version: 6.00 Build 0)  -->
<svg version="1.1" id="Layer_1" xmlns="http://www.w3.org/2000/svg" xmlns:xlink="http://www.w3.org/1999/xlink" x="0px" y="0px"
	 viewBox="0 0 133.2 112" style="enable-background:new 0 0 133.2 112;" xml:space="preserve">
<style type="text/css">
	.st0{fill:none;stroke:#4CAFC1;stroke-linecap:round;stroke-linejoin:round;stroke-miterlimit:10;}
</style>
<g>
	<path class="st0" d="M60.7,74.4v2.3c0,3.5,2.9,6.4,6.4,6.4h61.5"/>
	<path class="st0" d="M124.1,74.4H59.9c-3.7,0-6.7-3-6.7-6.7V46.6c0-3.7,3-6.7,6.7-6.7h25.8c2,0,3.5,1.6,3.5,3.5v6.3
		c0,2,1.6,3.5,3.5,3.5h23.4V24.4c0-3.7-3-6.7-6.7-6.7h-87c-3.7,0-6.7,3-6.7,6.7v18.3c0,14-9.6,25.6-9.6,35v18.1c0,2.5,2,4.5,4.5,4.5
		h113.4c2.5,0,4.5-2,4.5-4.5V78.9C128.6,76.4,126.6,74.4,124.1,74.4z"/>
	<line class="st0" x1="102.6" y1="68.9" x2="102.6" y2="53.3"/>
	<line class="st0" x1="27.7" y1="17.7" x2="27.7" y2="7"/>
	<line class="st0" x1="102.6" y1="17.7" x2="102.6" y2="10.8"/>
	<line class="st0" x1="41.3" y1="17.7" x2="41.3" y2="7"/>
	<line class="st0" x1="61.3" y1="17.7" x2="61.3" y2="7"/>
	<line class="st0" x1="41.3" y1="10.1" x2="61.3" y2="10.1"/>
	<path class="st0" d="M15.8,24.4H9.9c-1.4,0-2.5,1.1-2.5,2.5v14.7c0,1.4,1.1,2.5,2.5,2.5h5.9"/>
	<path class="st0" d="M41.2,39.7H28c-2.7,0-4.8-2.2-4.8-4.8v-1c0-2.7,2.2-4.8,4.8-4.8h13.2c2.7,0,4.8,2.2,4.8,4.8v1
		C46,37.5,43.9,39.7,41.2,39.7z"/>
	<line class="st0" x1="62.7" y1="29.7" x2="79.9" y2="29.7"/>
	<g>
		<g>
			<line class="st0" x1="25.2" y1="47.9" x2="25.2" y2="53.3"/>
			<line class="st0" x1="25.2" y1="57.3" x2="25.2" y2="62.7"/>
			<line class="st0" x1="25.2" y1="66.7" x2="25.2" y2="72.1"/>
		</g>
		<g>
			<line class="st0" x1="33.6" y1="47.9" x2="33.6" y2="53.3"/>
			<line class="st0" x1="33.6" y1="57.3" x2="33.6" y2="62.7"/>
			<line class="st0" x1="33.6" y1="66.7" x2="33.6" y2="72.1"/>
		</g>
		<g>
			<line class="st0" x1="42" y1="47.9" x2="42" y2="53.3"/>
			<line class="st0" x1="42" y1="57.3" x2="42" y2="62.7"/>
			<line class="st0" x1="42" y1="66.7" x2="42" y2="72.1"/>
		</g>
	</g>
	<path class="st0" d="M10.7,100.4v4.1c0,1.4,1.1,2.6,2.6,2.6h108.5c1.4,0,2.6-1.1,2.6-2.6v-4.1"/>
</g>
</svg>
