<?xml version="1.0" encoding="utf-8"?>
<!-- Generator: Adobe Illustrator 23.0.2, SVG Export Plug-In . SVG Version: 6.00 Build 0)  -->
<svg version="1.1" id="Layer_1" xmlns="http://www.w3.org/2000/svg" xmlns:xlink="http://www.w3.org/1999/xlink" x="0px" y="0px"
	 viewBox="0 0 112 112" style="enable-background:new 0 0 112 112;" xml:space="preserve">
<style type="text/css">
	.st0{fill:none;stroke:#4CAFC1;stroke-linecap:round;stroke-linejoin:round;stroke-miterlimit:10;}
</style>
<g>
	<polygon class="st0" points="26.2,72.5 10.2,62.5 10.2,96.1 26.9,107 35.6,96.1 	"/>
	<polygon class="st0" points="26.8,68.9 29.9,70.8 37.9,90.3 96.6,59.8 89.6,41.3 85.6,38.6 	"/>
	<polygon class="st0" points="34.5,69.3 52.2,60.1 59.4,74.9 41.1,85.4 	"/>
	<polygon class="st0" points="38.5,70.2 51.3,63.5 55.6,72.7 43.1,80.4 	"/>
	<line class="st0" x1="33.8" y1="80.4" x2="38.2" y2="78.3"/>
	<line class="st0" x1="56.2" y1="68.4" x2="66.3" y2="62.5"/>
	<polygon class="st0" points="65.4,49 72.9,67.7 67.5,65.4 64.2,58.3 	"/>
	<polygon class="st0" points="80,41.5 79.4,52.4 88.2,60.1 	"/>
	<line class="st0" x1="69.4" y1="58.8" x2="79.4" y2="52.4"/>
	<line class="st0" x1="72.9" y1="67.7" x2="88.2" y2="60.1"/>
	<line class="st0" x1="71.4" y1="63.9" x2="84.2" y2="56.6"/>
	<polyline class="st0" points="85.6,38.6 85.6,53.5 96.6,59.8 	"/>
	<path class="st0" d="M18.8,44.6V58l4-2.1l-0.7,3.7L22.1,60c0,1.2,2.3,2.2,5,2.2c2.8,0,5-1,5-2.2l-0.1-0.3l-1.4-6.9c0,0,0,0,0,0
		c0-0.2-0.1-0.5-0.4-0.7l2.6-1.4l-0.7,3.7l-0.1,0.3c0,1.2,2.3,2.2,5,2.2c2.8,0,5-1,5-2.2l-0.1-0.3l-1.4-6.9c0,0,0,0,0,0
		c0-0.2-0.1-0.4-0.3-0.6c0,0-0.1,0-0.1-0.1l2.6-1.4l-0.7,3.8l-0.1,0.3c0,1.2,2.3,2.2,5,2.2s5-1,5-2.2l-0.1-0.3l-1.4-6.9c0,0,0,0,0,0
		c0-0.2-0.1-0.4-0.3-0.6c0,0-0.1-0.1-0.1-0.1l2.7-1.4l-0.8,3.8l-0.1,0.3c0,1.2,2.3,2.2,5,2.2c2.8,0,5-1,5-2.2l-0.1-0.3L61,37.2
		c0,0,0,0,0,0c0-0.3-0.2-0.5-0.4-0.7l2.7-1.4l-0.8,3.8l-0.1,0.3c0,1.2,2.3,2.2,5,2.2c2.8,0,5-1,5-2.2l-0.1-0.3L71.1,32v0
		c0-0.2-0.1-0.4-0.3-0.6c0,0-0.1-0.1-0.2-0.1l5.3-2.7V15.4L18.8,44.6z"/>
	<path class="st0" d="M94,36.7l-13.5-6.4l-1.1,2.1l-3.5-2v-1.9l-5.3,2.7c0.1,0,0.1,0.1,0.2,0.1c0.2,0.2,0.3,0.4,0.3,0.6v0l1.4,6.9
		l0.1,0.3c0,1.2-2.3,2.2-5,2.2c-2.8,0-5-1-5-2.2l0.1-0.3l0.8-3.8l-2.7,1.4c0.3,0.2,0.4,0.5,0.4,0.7c0,0,0,0,0,0l1.4,6.9l0.1,0.3
		c0,1.2-2.3,2.2-5,2.2c-2.8,0-5-1-5-2.2l0.1-0.3l0.8-3.8l-2.7,1.4c0,0,0.1,0.1,0.1,0.1c0.2,0.2,0.3,0.4,0.3,0.6c0,0,0,0,0,0l1.4,6.9
		l0.1,0.3c0,1.2-2.3,2.2-5,2.2s-5-1-5-2.2l0.1-0.3l0.7-3.8l-2.6,1.4c0,0,0.1,0,0.1,0.1c0.2,0.2,0.3,0.4,0.3,0.6c0,0,0,0,0,0l1.4,6.9
		l0.1,0.3c0,1.2-2.3,2.2-5,2.2c-2.8,0-5-1-5-2.2l0.1-0.3l0.7-3.7l-2.6,1.4c0.2,0.2,0.4,0.4,0.4,0.7c0,0,0,0,0,0l1.4,6.9l0.1,0.3
		c0,1.2-2.3,2.2-5,2.2c-2.8,0-5-1-5-2.2l0.1-0.3l0.7-3.7l-4,2.1v5.5l-2.6,0.9l-2.3-1.6v-2.2l-3.7,1.9l16,10.1l9.4,23.5L26.9,107
		L94,71.7l9-11.7L94,36.7z"/>
	<polygon class="st0" points="77.8,7 13.9,40.6 13.9,60.6 13.9,62.8 16.2,64.4 18.8,63.5 18.8,58 18.8,44.6 76,15.4 76,28.6 
		76,30.5 79.4,32.4 80.5,30.3 80.5,9.5 	"/>
	<path class="st0" d="M26.1,51.2c0.1,0,0.2,0,0.4,0C26.4,51.2,26.2,51.2,26.1,51.2z"/>
	<path class="st0" d="M30.4,52.1c-0.2-0.2-0.4-0.3-0.7-0.4C30,51.8,30.2,51.9,30.4,52.1L30.4,52.1z"/>
	<path class="st0" d="M25.1,51.4c-1,0.3-1.6,0.8-1.6,1.3c0,0,0,0,0,0v0C23.5,52.2,24.1,51.7,25.1,51.4z"/>
	<path class="st0" d="M30.7,52.7L30.7,52.7C30.7,52.7,30.7,52.7,30.7,52.7c0-0.2-0.1-0.5-0.4-0.7l0,0C30.6,52.3,30.7,52.5,30.7,52.7
		z"/>
	<path class="st0" d="M25.1,51.4c0.3-0.1,0.7-0.2,1-0.2C25.8,51.3,25.4,51.3,25.1,51.4z"/>
	<path class="st0" d="M29.7,51.6c-0.7-0.3-1.6-0.5-2.5-0.5c-0.2,0-0.4,0-0.6,0c0.2,0,0.4,0,0.6,0C28.1,51.2,29,51.3,29.7,51.6z"/>
	<path class="st0" d="M30.7,52.7c0,0.9-1.6,1.6-3.6,1.6c-0.3,0-0.7,0-1-0.1c-1.5-0.2-2.6-0.8-2.6-1.5l-0.6,3.2l-0.7,3.7
		c0.4-1,2.5-1.8,5-1.8c2.5,0,4.6,0.8,5,1.8L30.7,52.7z"/>
	<path class="st0" d="M30.7,52.7c0-0.2-0.1-0.5-0.4-0.7c-0.2-0.2-0.4-0.3-0.7-0.4c-0.7-0.3-1.6-0.5-2.5-0.5c-0.2,0-0.4,0-0.6,0
		c-0.1,0-0.2,0-0.4,0c-0.4,0-0.7,0.1-1,0.2c-1,0.3-1.6,0.8-1.6,1.3v0c0,0.7,1.1,1.3,2.6,1.5c0.3,0,0.6,0.1,1,0.1
		C29.1,54.3,30.7,53.6,30.7,52.7L30.7,52.7z"/>
	<path class="st0" d="M27.1,57.8c-2.5,0-4.6,0.8-5,1.8L22.1,60c0,1.2,2.3,2.2,5,2.2c2.8,0,5-1,5-2.2l-0.1-0.3
		C31.7,58.6,29.6,57.8,27.1,57.8z"/>
	<path class="st0" d="M33.9,46.9c-0.2,0.2-0.3,0.4-0.3,0.6c0,0,0,0,0,0v0C33.6,47.3,33.7,47.1,33.9,46.9z"/>
	<path class="st0" d="M37.2,46c-1.5,0-2.7,0.4-3.3,0.9C34.5,46.4,35.8,46,37.2,46L37.2,46z"/>
	<path class="st0" d="M40.8,47.6C40.8,47.6,40.8,47.6,40.8,47.6c0-0.2-0.1-0.4-0.3-0.6C40.7,47.1,40.8,47.3,40.8,47.6L40.8,47.6z"/>
	<path class="st0" d="M33.9,46.9C33.9,46.9,33.9,46.9,33.9,46.9C33.9,46.9,33.9,46.9,33.9,46.9z"/>
	<path class="st0" d="M37.2,46C37.2,46,37.2,46,37.2,46c1,0,1.9,0.2,2.5,0.5C39.1,46.2,38.2,46,37.2,46z"/>
	<path class="st0" d="M40.5,46.9c-0.1-0.1-0.1-0.1-0.2-0.2C40.3,46.7,40.4,46.8,40.5,46.9L40.5,46.9z"/>
	<path class="st0" d="M40.8,47.6c0,0.9-1.6,1.6-3.6,1.6c-0.4,0-0.7,0-1-0.1c-1.5-0.2-2.6-0.8-2.6-1.5L33,50.7l-0.7,3.7
		c0.4-1,2.5-1.8,5-1.8c2.5,0,4.6,0.8,5,1.8L40.8,47.6z"/>
	<path class="st0" d="M40.5,46.9C40.5,46.9,40.5,46.9,40.5,46.9L40.5,46.9C40.5,46.9,40.5,46.9,40.5,46.9z"/>
	<path class="st0" d="M40.5,46.9C40.5,46.9,40.5,46.9,40.5,46.9c-0.2-0.1-0.2-0.2-0.3-0.3c-0.1-0.1-0.3-0.2-0.4-0.2
		c-0.7-0.3-1.6-0.5-2.5-0.5c-1.5,0-2.7,0.4-3.3,0.9c0,0,0,0,0,0c-0.2,0.2-0.3,0.4-0.3,0.6v0c0,0.7,1.1,1.3,2.6,1.5
		c0.3,0,0.7,0.1,1,0.1c2,0,3.6-0.7,3.6-1.6v0C40.8,47.3,40.7,47.1,40.5,46.9z"/>
	<path class="st0" d="M37.2,52.6c-2.5,0-4.6,0.8-5,1.8l-0.1,0.3c0,1.2,2.3,2.2,5,2.2c2.8,0,5-1,5-2.2l-0.1-0.3
		C41.8,53.4,39.7,52.6,37.2,52.6z"/>
	<path class="st0" d="M47.3,40.8L47.3,40.8c-2,0-3.6,0.7-3.6,1.6c0,0,0,0,0,0v0C43.7,41.5,45.3,40.8,47.3,40.8z"/>
	<path class="st0" d="M50.9,42.4C50.9,42.4,50.9,42.4,50.9,42.4c0-0.2-0.1-0.4-0.3-0.6C50.8,42,50.9,42.2,50.9,42.4L50.9,42.4z"/>
	<path class="st0" d="M47.3,40.8L47.3,40.8c1,0,1.9,0.2,2.5,0.5C49.2,41,48.3,40.8,47.3,40.8z"/>
	<path class="st0" d="M50.5,41.7c-0.1-0.1-0.1-0.1-0.2-0.2C50.4,41.6,50.5,41.6,50.5,41.7L50.5,41.7z"/>
	<path class="st0" d="M50.9,42.4c0,0.9-1.6,1.6-3.6,1.6c-0.4,0-0.7,0-1-0.1c-1.5-0.2-2.6-0.8-2.6-1.5l-0.6,3.1l-0.7,3.8
		c0.4-1,2.5-1.8,5-1.8c2.5,0,4.6,0.8,5,1.8L50.9,42.4z"/>
	<path class="st0" d="M50.6,41.8c0,0-0.1-0.1-0.1-0.1l0,0C50.6,41.7,50.6,41.7,50.6,41.8z"/>
	<path class="st0" d="M50.6,41.8c0,0-0.1-0.1-0.1-0.1c-0.1-0.1-0.1-0.1-0.2-0.2c-0.1-0.1-0.3-0.2-0.4-0.2c-0.7-0.3-1.6-0.5-2.5-0.5
		c-2,0-3.6,0.7-3.6,1.6v0c0,0.7,1.1,1.3,2.6,1.5c0.3,0,0.7,0.1,1,0.1c2,0,3.6-0.7,3.6-1.6v0C50.9,42.2,50.8,42,50.6,41.8z"/>
	<path class="st0" d="M47.3,47.4c-2.5,0-4.6,0.8-5,1.8l-0.1,0.3c0,1.2,2.3,2.2,5,2.2s5-1,5-2.2l-0.1-0.3
		C51.9,48.2,49.8,47.4,47.3,47.4z"/>
	<path class="st0" d="M54.1,36.6c-0.2,0.2-0.3,0.4-0.3,0.6c0,0,0,0,0,0l0,0C53.8,37,53.9,36.8,54.1,36.6z"/>
	<path class="st0" d="M57.4,35.6c-1.5,0-2.7,0.4-3.3,0.9C54.7,36,56,35.6,57.4,35.6L57.4,35.6z"/>
	<path class="st0" d="M60.6,36.5c-0.2-0.1-0.4-0.3-0.6-0.4C60.2,36.2,60.4,36.3,60.6,36.5L60.6,36.5z"/>
	<path class="st0" d="M61,37.2L61,37.2C61,37.2,61,37.2,61,37.2c0-0.3-0.2-0.5-0.4-0.7l0,0C60.9,36.7,61,36.9,61,37.2z"/>
	<path class="st0" d="M57.4,35.6L57.4,35.6c1,0,1.9,0.2,2.5,0.5C59.3,35.8,58.4,35.6,57.4,35.6z"/>
	<path class="st0" d="M54.1,36.6C54.1,36.6,54.1,36.6,54.1,36.6C54.1,36.6,54.1,36.6,54.1,36.6z"/>
	<path class="st0" d="M61,37.2c0,0.9-1.6,1.6-3.6,1.6c-0.4,0-0.7,0-1.1-0.1c-1.5-0.2-2.5-0.8-2.5-1.5l-0.6,3.1l-0.8,3.8
		c0.4-1,2.5-1.8,5-1.8c2.5,0,4.6,0.8,5,1.8L61,37.2z"/>
	<path class="st0" d="M61,37.2c0-0.3-0.2-0.5-0.4-0.7c-0.2-0.1-0.4-0.3-0.6-0.4c-0.7-0.3-1.6-0.5-2.5-0.5c-1.5,0-2.7,0.4-3.3,0.9
		c0,0,0,0,0,0c-0.2,0.2-0.3,0.4-0.3,0.6l0,0c0,0.7,1.1,1.3,2.5,1.5c0.3,0,0.7,0.1,1.1,0.1C59.4,38.8,61,38.1,61,37.2L61,37.2z"/>
	<path class="st0" d="M57.4,42.2c-2.5,0-4.6,0.8-5,1.8l-0.1,0.3c0,1.2,2.3,2.2,5,2.2c2.8,0,5-1,5-2.2l-0.1-0.3
		C62,43,59.9,42.2,57.4,42.2z"/>
	<path class="st0" d="M67.5,30.4c-1.5,0-2.7,0.4-3.3,0.9C64.8,30.8,66.1,30.4,67.5,30.4L67.5,30.4z"/>
	<path class="st0" d="M64.2,31.4c-0.2,0.2-0.3,0.4-0.3,0.6l0,0v0C63.9,31.8,64,31.6,64.2,31.4z"/>
	<path class="st0" d="M71.1,32L71.1,32c0-0.2-0.1-0.4-0.3-0.6C71,31.6,71.1,31.8,71.1,32L71.1,32z"/>
	<path class="st0" d="M64.2,31.4C64.2,31.4,64.2,31.4,64.2,31.4C64.2,31.4,64.2,31.4,64.2,31.4z"/>
	<path class="st0" d="M67.5,30.4C67.5,30.4,67.5,30.4,67.5,30.4c1.2,0,2.3,0.3,3,0.7C69.9,30.7,68.8,30.4,67.5,30.4z"/>
	<path class="st0" d="M70.7,31.3c-0.1,0-0.1-0.1-0.2-0.1C70.6,31.2,70.6,31.2,70.7,31.3L70.7,31.3z"/>
	<path class="st0" d="M71.1,32c0,0.9-1.6,1.6-3.6,1.6c-0.4,0-0.8,0-1.1-0.1c-1.4-0.2-2.5-0.8-2.5-1.5l-0.6,3.1l-0.8,3.8
		c0.4-1,2.5-1.8,5-1.8c2.5,0,4.6,0.8,5,1.8L71.1,32z"/>
	<path class="st0" d="M70.9,31.4c0,0-0.1-0.1-0.2-0.1v0C70.8,31.3,70.8,31.4,70.9,31.4z"/>
	<path class="st0" d="M70.9,31.4c0,0-0.1-0.1-0.2-0.1c-0.1,0-0.1-0.1-0.2-0.1c-0.6-0.4-1.7-0.7-3-0.7c-1.5,0-2.7,0.4-3.3,0.9
		c0,0,0,0,0,0c-0.2,0.2-0.3,0.4-0.3,0.6v0c0,0.7,1,1.3,2.5,1.5c0.4,0.1,0.7,0.1,1.1,0.1c2,0,3.6-0.7,3.6-1.6v0
		C71.1,31.8,71,31.6,70.9,31.4z"/>
	<path class="st0" d="M67.5,37.1c-2.5,0-4.6,0.8-5,1.8l-0.1,0.3c0,1.2,2.3,2.2,5,2.2c2.8,0,5-1,5-2.2l-0.1-0.3
		C72.1,37.9,70.1,37.1,67.5,37.1z"/>
</g>
</svg>
