<?xml version="1.0" encoding="utf-8"?>
<!-- Generator: Adobe Illustrator 23.0.2, SVG Export Plug-In . SVG Version: 6.00 Build 0)  -->
<svg version="1.1" id="Layer_1" xmlns="http://www.w3.org/2000/svg" xmlns:xlink="http://www.w3.org/1999/xlink" x="0px" y="0px"
	 viewBox="0 0 112 112" style="enable-background:new 0 0 112 112;" xml:space="preserve">
<style type="text/css">
	.st0{fill:none;stroke:#4CAFC1;stroke-linecap:round;stroke-linejoin:round;stroke-miterlimit:10;}
</style>
<g>
	<g>
		<path class="st0" d="M73.7,100.5h4.8c6.6,0,11.7-5.7,11.1-12.2L89.1,83c-0.1,0-0.2,0-0.2,0C84.8,89.6,79.7,95.5,73.7,100.5z"/>
		<path class="st0" d="M88.9,83c0.1,0,0.2,0,0.2,0l0-0.3C89,82.8,88.9,82.9,88.9,83z"/>
		<path class="st0" d="M88.9,83c-0.8,0-1.6,0-2.4,0c-1.3,0-2.5,0-3.7-0.1c-4.7,6.9-10.7,12.9-17.7,17.5h8.6
			C79.7,95.5,84.8,89.6,88.9,83z"/>
		<path class="st0" d="M53,100.5h12.1c7-4.6,13-10.6,17.7-17.5c-2.3-0.1-4.5-0.4-6.7-0.7C70.1,90.1,62.1,96.4,53,100.5z"/>
		<path class="st0" d="M29.2,98.9c-0.3,0-0.7,0-1,0c1.7,1,3.6,1.6,5.7,1.6H53c9.2-4,17.1-10.4,23.1-18.2c-2.4-0.4-4.8-0.9-7.1-1.6
			C59.3,91.8,45.1,98.9,29.2,98.9z"/>
		<path class="st0" d="M29.2,91.7c-2.1,0-4.2-0.2-6.3-0.4c0.6,3.2,2.5,6,5.3,7.6c0.3,0,0.7,0,1,0c15.9,0,30.1-7.1,39.7-18.3
			c-2.5-0.7-5-1.6-7.4-2.6C53.3,86.5,41.9,91.7,29.2,91.7z"/>
		<path class="st0" d="M83.7,27.9c-0.6-5.7-4.5-10.4-9.7-12.1c-0.2,0.8-0.3,1.7-0.3,2.5c0,0.3,0,0.6,0,0.8c0.2,3.5,1.8,6.6,4.3,8.7
			c1.6,1.4,3.7,2.5,5.9,2.9L83.7,27.9z"/>
		<path class="st0" d="M29.2,85.3c-2.1,0-4.1-0.2-6.1-0.5l-0.3,3.4c-0.1,1,0,2,0.1,3c2.1,0.3,4.2,0.4,6.3,0.4
			c12.7,0,24.1-5.2,32.3-13.6c-2.1-0.9-4.1-1.9-6.1-2.9C48.5,81.5,39.3,85.3,29.2,85.3z"/>
		<path class="st0" d="M84,30.8c-2.2-0.4-4.3-1.5-5.9-2.9c-2.5-2.2-4.1-5.2-4.3-8.7c0-0.3,0-0.6,0-0.8c0-0.9,0.1-1.7,0.3-2.5
			c-0.9-0.3-1.9-0.5-3-0.6c-0.5-0.1-1-0.1-1.5-0.1h-2.1c-0.2,1.1-0.3,2.2-0.3,3.3c0,1.7,0.2,3.4,0.7,5c0.7,2.4,1.8,4.7,3.3,6.7
			c2.4,3.1,5.6,5.5,9.4,6.7c1.3,0.4,2.7,0.7,4.1,0.8L84,30.8z"/>
		<path class="st0" d="M29.2,79.1c-1.9,0-3.7-0.2-5.5-0.5l-0.6,6.2c2,0.3,4,0.5,6.1,0.5c10.1,0,19.3-3.9,26.2-10.2
			c-1.9-1-3.7-2.2-5.5-3.4C44.3,76.3,37.1,79.1,29.2,79.1z"/>
		<path class="st0" d="M84.7,37.5c-1.4-0.1-2.8-0.4-4.1-0.8c-3.8-1.2-7.1-3.6-9.4-6.7c-1.5-2-2.6-4.2-3.3-6.7
			c-0.4-1.6-0.7-3.3-0.7-5c0-1.1,0.1-2.2,0.3-3.3h-6h-0.9c-0.1,1.1-0.2,2.2-0.2,3.3c0,2.2,0.3,4.2,0.8,6.2c0.9,3.8,2.6,7.2,5,10.1
			c2.2,2.7,4.9,5,7.9,6.6c2.3,1.3,4.8,2.2,7.5,2.7c1.3,0.2,2.5,0.4,3.9,0.5L84.7,37.5z"/>
		<path class="st0" d="M29.2,72.8c-1.7,0-3.3-0.2-4.9-0.5l-0.6,6.4c1.8,0.3,3.6,0.5,5.5,0.5c7.8,0,15-2.8,20.7-7.4
			c-1.8-1.2-3.6-2.6-5.2-4C40.3,70.9,35,72.8,29.2,72.8z"/>
		<path class="st0" d="M85.3,44.5c-1.3-0.1-2.6-0.2-3.9-0.5c-2.7-0.5-5.2-1.4-7.5-2.7c-3.1-1.7-5.8-3.9-7.9-6.6
			c-2.3-2.9-4.1-6.4-5-10.1c-0.5-2-0.8-4.1-0.8-6.2c0-1.1,0.1-2.2,0.2-3.3h-6.4c-0.1,0.6-0.1,1.2-0.1,1.8c0,0.5,0,1,0,1.5
			c0,3,0.4,5.8,1.1,8.5c1.1,4.1,3,7.9,5.5,11.2c2.1,2.7,4.5,5.1,7.3,7c2,1.4,4.1,2.5,6.4,3.5c2.3,0.9,4.6,1.6,7.1,2
			c1.5,0.2,3,0.4,4.6,0.4L85.3,44.5z"/>
		<path class="st0" d="M39.5,62.9c-3,1.9-6.5,3-10.3,3c-1.4,0-2.8-0.2-4.2-0.5l-0.7,6.9c1.6,0.3,3.2,0.5,4.9,0.5
			c5.8,0,11.1-1.9,15.4-5C42.9,66.2,41.2,64.6,39.5,62.9z"/>
		<path class="st0" d="M86,50.9c-1.6,0-3.1-0.2-4.6-0.4c-2.5-0.4-4.9-1.1-7.1-2c-2.3-0.9-4.4-2.1-6.4-3.5c-2.8-1.9-5.2-4.3-7.3-7
			c-2.5-3.3-4.4-7.1-5.5-11.2c-0.7-2.7-1.1-5.6-1.1-8.5c0-0.5,0-1,0-1.5c0-0.6,0.1-1.2,0.1-1.8h-2.4h-3.8c-0.1,1.1-0.1,2.2-0.1,3.3
			c0,0.5,0,1,0,1.5c0.1,3.6,0.8,7.1,1.8,10.3c1.2,3.6,2.9,7,5,10.1c2,2.9,4.4,5.5,7.1,7.8c1.8,1.5,3.8,2.9,5.8,4
			c1.9,1.1,3.9,2,6,2.7c2.3,0.8,4.6,1.4,7,1.8c1.9,0.3,3.9,0.5,5.9,0.5c0,0,0,0,0.1,0L86,50.9z"/>
		<path class="st0" d="M29.2,59.3c-1.2,0-2.4-0.2-3.5-0.5L25,65.4c1.3,0.3,2.8,0.5,4.2,0.5c3.8,0,7.3-1.1,10.3-3
			c-1.5-1.6-3-3.3-4.3-5C33.4,58.8,31.4,59.3,29.2,59.3z"/>
		<path class="st0" d="M86.8,59l-0.2-2c0,0,0,0-0.1,0c-2,0-4-0.2-5.9-0.5c-2.4-0.4-4.8-1-7-1.8c-2.1-0.7-4.1-1.7-6-2.7
			c-2.1-1.2-4-2.5-5.8-4c-2.7-2.2-5.1-4.9-7.1-7.8c-2.1-3.1-3.8-6.5-5-10.1c-1.1-3.3-1.7-6.7-1.8-10.3c0-0.5,0-1,0-1.5
			c0-1.1,0.1-2.2,0.1-3.3h-5.1c-0.4,0-0.9,0-1.3,0.1c0,0.4-0.1,0.9-0.1,1.3c0,0.6,0,1.3,0,1.9c0,1.8,0.1,3.5,0.3,5.2
			c0.5,3.9,1.4,7.7,2.8,11.3c0.9,2.3,2,4.6,3.3,6.7c2,3.3,4.4,6.4,7.2,9.1c1.7,1.7,3.6,3.2,5.5,4.6c1.7,1.2,3.6,2.3,5.5,3.3
			c1.9,1,3.9,1.8,5.9,2.5c2.3,0.8,4.6,1.4,7,1.8c2.2,0.4,4.4,0.6,6.7,0.6c0.3,0,0.6,0,0.9,0c0.2,0,0.5,0,0.7,0L86.8,59z"/>
		<path class="st0" d="M25.7,58.8c1.1,0.3,2.3,0.5,3.5,0.5c2.2,0,4.2-0.5,6-1.5c-3.2-4.2-6-8.8-8.1-13.7L25.7,58.8z"/>
		<path class="st0" d="M88.5,77.2c-0.7,0-1.3,0.1-2,0.1c-0.1,0-0.2,0-0.3,0c-2.2,0-4.4-0.1-6.5-0.4c-2.4-0.3-4.7-0.7-7-1.2
			c-2.5-0.6-4.9-1.3-7.3-2.2c-2.1-0.8-4-1.7-6-2.7c-1.9-1-3.7-2-5.4-3.2c-1.8-1.2-3.5-2.4-5.1-3.8c-1.8-1.5-3.4-3-5-4.7
			c-1.5-1.6-3-3.3-4.3-5.1c-4.5-5.9-7.9-12.7-9.9-20.1c-0.4-1.6-0.8-3.3-1.1-5l-0.5,5l-1,10.2c2.1,4.9,4.9,9.5,8.1,13.7
			c1.4,1.8,2.8,3.4,4.3,5c1.6,1.7,3.3,3.3,5.1,4.8c1.7,1.4,3.4,2.8,5.2,4c1.8,1.2,3.6,2.4,5.5,3.4c2,1.1,4,2.1,6.1,2.9
			c2.4,1,4.9,1.9,7.4,2.6c2.3,0.7,4.7,1.2,7.1,1.6c2.2,0.4,4.4,0.6,6.7,0.7c1.2,0.1,2.5,0.1,3.7,0.1c0.8,0,1.6,0,2.4,0
			c0.1-0.1,0.1-0.2,0.2-0.3L88.5,77.2z"/>
		<path class="st0" d="M88.2,73.4l-0.3-2.7c-0.5,0-0.9,0-1.4,0c-1.2,0-2.3-0.1-3.5-0.1c-2.3-0.2-4.6-0.4-6.8-0.9
			c-2.4-0.5-4.8-1.1-7.1-2c-2-0.7-4-1.5-5.9-2.5c-1.9-0.9-3.6-2-5.4-3.1c-1.8-1.2-3.5-2.5-5.2-3.9c-1.9-1.6-3.6-3.3-5.3-5.2
			c-2-2.3-3.9-4.7-5.5-7.3c-1.7-2.7-3.1-5.7-4.3-8.7c-1.1-2.8-1.9-5.8-2.5-8.8c-0.5-2.4-0.8-4.8-0.9-7.3c0-0.8-0.1-1.7-0.1-2.6
			c0-0.1,0-0.2,0-0.3c-0.9,0.7-1.8,1.6-2.5,2.5c-1.5,1.9-2.5,4.2-2.9,6.8c0,0.2-0.1,0.4-0.1,0.6l-0.1,1c0.3,1.7,0.7,3.3,1.1,5
			c2,7.4,5.4,14.1,9.9,20.1c1.3,1.8,2.8,3.5,4.3,5.1c1.6,1.7,3.3,3.2,5,4.7c1.6,1.4,3.4,2.6,5.1,3.8c1.7,1.1,3.5,2.2,5.4,3.2
			c1.9,1,3.9,1.9,6,2.7c2.4,0.9,4.8,1.6,7.3,2.2c2.3,0.5,4.6,1,7,1.2c2.1,0.2,4.3,0.4,6.5,0.4c0.1,0,0.2,0,0.3,0c0.7,0,1.4,0,2-0.1
			L88.2,73.4z"/>
		<path class="st0" d="M87.2,63.4c-0.2,0-0.5,0-0.7,0c-0.3,0-0.6,0-0.9,0c-2.3,0-4.5-0.3-6.7-0.6c-2.4-0.4-4.8-1-7-1.8
			c-2-0.7-4-1.5-5.9-2.5c-1.9-1-3.7-2.1-5.5-3.3c-2-1.4-3.8-2.9-5.5-4.6c-2.8-2.7-5.2-5.8-7.2-9.1c-1.3-2.1-2.4-4.3-3.3-6.7
			c-1.4-3.6-2.4-7.4-2.8-11.3c-0.2-1.7-0.3-3.5-0.3-5.2c0-0.6,0-1.3,0-1.9c0-0.4,0-0.9,0.1-1.3c-0.8,0.1-1.6,0.2-2.4,0.4
			c-1.8,0.5-3.5,1.3-4.9,2.4c0,0.1,0,0.2,0,0.3c0,0.9,0,1.7,0.1,2.6c0.1,2.5,0.4,4.9,0.9,7.3c0.6,3,1.4,6,2.5,8.8
			c1.2,3.1,2.6,6,4.3,8.7c1.6,2.6,3.4,5.1,5.5,7.3c1.6,1.8,3.4,3.6,5.3,5.2c1.6,1.4,3.4,2.7,5.2,3.9c1.7,1.1,3.5,2.2,5.4,3.1
			c1.9,0.9,3.9,1.8,5.9,2.5c2.3,0.8,4.7,1.5,7.1,2c2.2,0.4,4.5,0.7,6.8,0.9c1.2,0.1,2.3,0.1,3.5,0.1c0.5,0,0.9,0,1.4,0L87.2,63.4z"
			/>
	</g>
	<path class="st0" d="M66.8,15.1V9.4c0-1.3-1.1-2.4-2.4-2.4H48c-1.3,0-2.4,1.1-2.4,2.4v5.7"/>
	<path class="st0" d="M37.9,100.5v4.2c0,1.3,1.1,2.4,2.4,2.4h31.9c1.3,0,2.4-1.1,2.4-2.4v-4.2"/>
</g>
</svg>
