<?xml version="1.0" encoding="utf-8"?>
<!-- Generator: Adobe Illustrator 23.0.2, SVG Export Plug-In . SVG Version: 6.00 Build 0)  -->
<svg version="1.1" id="Layer_1" xmlns="http://www.w3.org/2000/svg" xmlns:xlink="http://www.w3.org/1999/xlink" x="0px" y="0px"
	 viewBox="0 0 112 112" style="enable-background:new 0 0 112 112;" xml:space="preserve">
<style type="text/css">
	.st0{fill:none;stroke:#4CAFC1;stroke-linecap:round;stroke-linejoin:round;stroke-miterlimit:10;}
</style>
<g>
	<g>
		<ellipse class="st0" cx="46.5" cy="13" rx="37.7" ry="6"/>
		<polyline class="st0" points="27,49 13.5,73.5 13.5,104.8 17,107 17,75 30.9,49.4 		"/>
		<line class="st0" x1="100.5" y1="45.8" x2="100.5" y2="106.6"/>
		<polyline class="st0" points="64.7,49.8 81.1,49.8 81.1,105.3 74,102.9 		"/>
		<line class="st0" x1="17" y1="107" x2="23.7" y2="102.9"/>
		<path class="st0" d="M81.1,105.3l19.2,1.7l3.9-3.9V48.2c0-1.3-1.1-2.4-2.4-2.4H64.7"/>
		<path class="st0" d="M21.8,73.6l-0.3,0.6v24.5v1.5c0,1.3,0.9,2.5,2.3,2.8c5.5,1.1,14.7,1.8,25.1,1.8c10.4,0,19.6-0.7,25.1-1.8
			c1.3-0.3,2.3-1.4,2.3-2.8v-1.5V74.2l-0.4-0.6c-6.8,0.8-16.5,1.4-27.2,1.4C38.1,74.9,28.6,74.4,21.8,73.6z"/>
		<path class="st0" d="M72.5,67.3l-9.5-17.4c-3.2,0.1-6.6,0.1-10.2,0.1c-5.9,0-11.5-0.1-16.5-0.4h-1.3l-9.6,17.6l-3.5,6.4
			c6.8,0.8,16.3,1.3,26.9,1.3c10.7,0,20.4-0.5,27.2-1.4L72.5,67.3z"/>
		<path class="st0" d="M52.8,45.1c-10,0-19-0.4-25.7-0.9V49c2.7,0.2,5.8,0.4,9.2,0.6c5,0.2,10.6,0.4,16.5,0.4c3.5,0,6.9,0,10.2-0.1
			c0.6,0,1.2,0,1.8,0V45C60.9,45.1,56.9,45.1,52.8,45.1z"/>
		<line class="st0" x1="32.8" y1="44.6" x2="32.8" y2="18.6"/>
		<line class="st0" x1="60.2" y1="45.1" x2="60.2" y2="18.5"/>
		<path class="st0" d="M35.7,44.7v-2.6c0-3.5,2.8-6.3,6.3-6.3H51c3.5,0,6.3,2.8,6.3,6.3v2.9"/>
		<path class="st0" d="M93.1,62h-5.7c-1.9,0-3.5-1.6-3.5-3.5v-3.6c0-1.9,1.6-3.5,3.5-3.5h5.7c1.9,0,3.5,1.6,3.5,3.5v3.6
			C96.6,60.5,95,62,93.1,62z"/>
		<path class="st0" d="M85.5,97.9L85.5,97.9c-1,0-1.8-0.8-1.8-1.8v-7c0-1,0.8-1.8,1.8-1.8h0c1,0,1.8,0.8,1.8,1.8v7
			C87.3,97.1,86.5,97.9,85.5,97.9z"/>
	</g>
	<g>
		<line class="st0" x1="25.3" y1="77.6" x2="25.3" y2="81.5"/>
		<line class="st0" x1="25.3" y1="86.1" x2="25.3" y2="90"/>
		<line class="st0" x1="25.3" y1="94.7" x2="25.3" y2="98.6"/>
	</g>
	<g>
		<line class="st0" x1="29.4" y1="78.6" x2="29.4" y2="82.5"/>
		<line class="st0" x1="29.4" y1="87.2" x2="29.4" y2="91.1"/>
		<line class="st0" x1="29.4" y1="95.7" x2="29.4" y2="99.6"/>
	</g>
	<g>
		<line class="st0" x1="72.2" y1="77.6" x2="72.2" y2="81.5"/>
		<line class="st0" x1="72.2" y1="86.1" x2="72.2" y2="90"/>
		<line class="st0" x1="72.2" y1="94.7" x2="72.2" y2="98.6"/>
	</g>
	<g>
		<line class="st0" x1="68.1" y1="78.6" x2="68.1" y2="82.5"/>
		<line class="st0" x1="68.1" y1="87.2" x2="68.1" y2="91.1"/>
		<line class="st0" x1="68.1" y1="95.7" x2="68.1" y2="99.6"/>
	</g>
</g>
</svg>
