<?xml version="1.0" encoding="utf-8"?>
<!-- Generator: Adobe Illustrator 23.0.2, SVG Export Plug-In . SVG Version: 6.00 Build 0)  -->
<svg version="1.1" id="Layer_1" xmlns="http://www.w3.org/2000/svg" xmlns:xlink="http://www.w3.org/1999/xlink" x="0px" y="0px"
	 viewBox="0 0 112 112" style="enable-background:new 0 0 112 112;" xml:space="preserve">
<style type="text/css">
	.st0{fill:none;stroke:#4CAFC1;stroke-linecap:round;stroke-linejoin:round;stroke-miterlimit:10;}
</style>
<g>
	<path class="st0" d="M16.6,102.9H5.9c-1.4,0-2.5-1.1-2.5-2.5v-3.7c0-1.4,1.1-2.5,2.5-2.5h10.7c1.4,0,2.5,1.1,2.5,2.5v3.7
		C19.1,101.8,18,102.9,16.6,102.9z"/>
	<path class="st0" d="M105.1,105.1h-8c-2.1,0-3.8-1.7-3.8-3.8V98c0-2.1,1.7-3.8,3.8-3.8h8c2.1,0,3.8,1.7,3.8,3.8v3.3
		C108.9,103.4,107.2,105.1,105.1,105.1z"/>
	<path class="st0" d="M83.5,95H28.8c-1.4,0-2.5,1.1-2.5,2.5v6.9c0,1.4,1.1,2.5,2.5,2.5h54.7c1.4,0,2.5-1.1,2.5-2.5v-6.9
		C86,96.2,84.9,95,83.5,95z"/>
	<g>
		<g>
			<path class="st0" d="M18.9,51.4v14.8c1.9-5.6,4.5-11.5,7.4-15.5c-0.8-5.7-2.1-11.6-4-17.5"/>
		</g>
		<g>
			<path class="st0" d="M93.4,51.4v14.8c-1.9-5.6-4.5-11.5-7.4-15.5c0.8-5.7,2.1-11.6,4-17.5"/>
			<path class="st0" d="M93.4,51.4v14.8v26.1c0,1,0.8,1.9,1.9,1.9h11.4c1,0,1.9-0.8,1.9-1.9V62.5c-4.4-17.8-9.6-35.1-14.1-38.1
				c-5-3.4-7.7-4.6-24-6.7l-12.5,6.5c-1.2,0.6-2.7,0.6-3.9,0l-12.5-6.5c-16.3,2.2-19,3.4-24,6.7c-4.5,3-9.7,20.4-14.1,38.1v29.8
				c0,1,0.8,1.9,1.9,1.9H17c1,0,1.9-0.8,1.9-1.9V66.2V51.4"/>
			<path class="st0" d="M90,33.3c-1.9,5.9-3.1,11.8-4,17.5c-2.8,18.9-0.8,34.8-0.8,34.8v6.6c0,1.6-1.3,2.9-2.9,2.9H56.1h0H30
				c-1.6,0-2.9-1.3-2.9-2.9v-6.6c0,0,1.9-15.9-0.8-34.8c-0.8-5.7-2.1-11.6-4-17.5"/>
		</g>
	</g>
	<path class="st0" d="M70.5,17.7L70.5,17.7l-1.6-8.1C68.6,8.1,67.3,7,65.8,7H46.5c-1.5,0-2.8,1.1-3.1,2.6l-1.6,8.1l0,0l12.4,6.5
		c1.2,0.6,2.7,0.6,3.9,0L70.5,17.7z"/>
	<path class="st0" d="M70.6,17.6L70.6,17.6l-12.5,6.5c-1.2,0.6-2.7,0.6-3.9,0l-12.4-6.5l-0.1,0c-3.8,0.5-6.9,1-9.4,1.4
		c8.5,5.9,17.3,12,21.5,14.9c1.4,1,3.3,1,4.8,0L80,19.1C77.5,18.6,74.4,18.2,70.6,17.6z"/>
	<line class="st0" x1="56.1" y1="24.7" x2="56.1" y2="14.7"/>
	<g>
		<line class="st0" x1="48.6" y1="21.2" x2="48.6" y2="14.7"/>
		<line class="st0" x1="63.7" y1="21.2" x2="63.7" y2="14.7"/>
	</g>
	<g>
		<line class="st0" x1="34.1" y1="101" x2="34.1" y2="107"/>
		<line class="st0" x1="41.5" y1="101" x2="41.5" y2="107"/>
		<line class="st0" x1="48.8" y1="101" x2="48.8" y2="107"/>
		<line class="st0" x1="56.1" y1="101" x2="56.1" y2="107"/>
		<line class="st0" x1="63.5" y1="101" x2="63.5" y2="107"/>
		<line class="st0" x1="70.8" y1="101" x2="70.8" y2="107"/>
		<line class="st0" x1="78.2" y1="101" x2="78.2" y2="107"/>
	</g>
</g>
</svg>
