<?xml version="1.0" encoding="utf-8"?>
<!-- Generator: Adobe Illustrator 23.0.2, SVG Export Plug-In . SVG Version: 6.00 Build 0)  -->
<svg version="1.1" id="Layer_1" xmlns="http://www.w3.org/2000/svg" xmlns:xlink="http://www.w3.org/1999/xlink" x="0px" y="0px"
	 viewBox="0 0 159.4 112" style="enable-background:new 0 0 159.4 112;" xml:space="preserve">
<style type="text/css">
	.st0{fill:none;stroke:#4CAFC1;stroke-linecap:round;stroke-linejoin:round;stroke-miterlimit:10;}
</style>
<g>
	<path class="st0" d="M96.8,7H6v70.5h100.7V16.9C106.7,11.4,102.3,7,96.8,7z"/>
	<path class="st0" d="M101.1,95.5h-32c-1.5,0-2.6-1.2-2.6-2.6v-5.1c0-1.5,1.2-2.6,2.6-2.6h32c1.5,0,2.6,1.2,2.6,2.6v5.1
		C103.8,94.4,102.6,95.5,101.1,95.5z"/>
	<g>
		<circle class="st0" cx="40.8" cy="93.1" r="6.1"/>
		<circle class="st0" cx="40.8" cy="93.1" r="13.9"/>
	</g>
	<circle class="st0" cx="122.8" cy="93.1" r="6.1"/>
	<circle class="st0" cx="122.8" cy="93.1" r="13.9"/>
	<path class="st0" d="M147.5,80.4v-6.7h2.3V54.9c0-7-5.7-12.6-12.6-12.6h-20.2c-2.1,0-3.7,1.7-3.7,3.7v27.8h9.6
		c1.4,0,2.8,0.2,4.1,0.4c6.4,1.4,11.6,5.9,13.9,11.9l0.8,0.1h11.8v-5.7H147.5z"/>
	<g>
		<line class="st0" x1="16.2" y1="15.7" x2="96.6" y2="15.7"/>
		<line class="st0" x1="16.2" y1="24.6" x2="96.6" y2="24.6"/>
		<line class="st0" x1="16.2" y1="33.4" x2="96.6" y2="33.4"/>
		<line class="st0" x1="16.2" y1="42.2" x2="96.6" y2="42.2"/>
		<line class="st0" x1="16.2" y1="51.1" x2="96.6" y2="51.1"/>
		<line class="st0" x1="16.2" y1="59.9" x2="96.6" y2="59.9"/>
		<line class="st0" x1="16.2" y1="68.8" x2="96.6" y2="68.8"/>
	</g>
	<path class="st0" d="M143.8,56.4c0-4.8-3.9-8.7-8.8-8.7h-14c-1.4,0-2.6,1.2-2.6,2.6v12.6h25.3V56.4z"/>
</g>
</svg>
