<?xml version="1.0" encoding="utf-8"?>
<!-- Generator: Adobe Illustrator 23.0.2, SVG Export Plug-In . SVG Version: 6.00 Build 0)  -->
<svg version="1.1" id="Layer_1" xmlns="http://www.w3.org/2000/svg" xmlns:xlink="http://www.w3.org/1999/xlink" x="0px" y="0px"
	 viewBox="0 0 112 112" style="enable-background:new 0 0 112 112;" xml:space="preserve">
<style type="text/css">
	.st0{fill:none;stroke:#4CAFC1;stroke-linecap:round;stroke-linejoin:round;stroke-miterlimit:10;}
</style>
<g>
	<path class="st0" d="M47.5,34.7l1.8-12.4c0.4-3,3-5.3,6-5.3H71c2.3,0,4.3,1.2,5.4,3.2l21.9,41c0.5,0.9,0.7,1.9,0.7,2.9v30.4
		c0,6.2-5,11.2-11.2,11.2H63.6"/>
	<line class="st0" x1="43.3" y1="63.3" x2="44.7" y2="53.8"/>
	<path class="st0" d="M84.6,65.3L84.6,65.3c-2.3,1.2-5.1,0.4-6.3-1.9L63.8,36.6c-1.2-2.3-0.4-5.1,1.9-6.3l0,0
		c2.3-1.2,5.1-0.4,6.3,1.9l14.4,26.8C87.7,61.2,86.9,64.1,84.6,65.3z"/>
	<path class="st0" d="M54.5,97.7H22.4c-3.2,0-6-1.2-8.3-3"/>
	<path class="st0" d="M51.7,81.7c-1.4,3.4-4.8,5.8-8.7,5.8c-4,0-7.4-2.5-8.8-6h-7.3c-7,0-12.8,5.7-12.8,12.8l0,0
		c0,7,5.7,12.8,12.8,12.8h22.7c7,0,12.8-5.7,12.8-12.8l0,0C62.3,87.9,57.7,82.7,51.7,81.7z"/>
	<path class="st0" d="M43,68.5c-5.2,0-9.5,4.2-9.5,9.5c0,1.2,0.2,2.4,0.7,3.5c1.4,3.5,4.8,6,8.8,6c3.9,0,7.3-2.4,8.7-5.8
		c0.5-1.1,0.8-2.4,0.8-3.7C52.5,72.7,48.2,68.5,43,68.5z"/>
	<path class="st0" d="M43,73.6c2.4,0,4.3,1.9,4.3,4.3"/>
	<circle class="st0" cx="25.8" cy="57" r="6.4"/>
	<circle class="st0" cx="46" cy="44.7" r="4.9"/>
	<circle class="st0" cx="28.2" cy="24.5" r="4.9"/>
	<path class="st0" d="M57,17V8.8c0-1,0.8-1.8,1.8-1.8h10.6c1,0,1.8,0.8,1.8,1.8V17"/>
</g>
</svg>
